IKResults
version=1
nRows=4
nColumns=63
inDegrees=yes

Units are S.I. units (second, meters, Newtons, ...)
If the header above contains a line with 'inDegrees', this indicates whether rotational values are in degrees (yes) or radians (no).

endheader
time	pelvis_tilt	pelvis_list	pelvis_rotation	pelvis_tx	pelvis_ty	pelvis_tz	hip_flexion_r	hip_adduction_r	hip_rotation_r	knee_angle_r	knee_angle_r_beta	ankle_angle_r	subtalar_angle_r	mtp_angle_r	hip_flexion_l	hip_adduction_l	hip_rotation_l	knee_angle_l	knee_angle_l_beta	ankle_angle_l	subtalar_angle_l	mtp_angle_l	L5_S1_Flex_Ext	L5_S1_Lat_Bending	L5_S1_axial_rotation	L4_L5_Flex_Ext	L4_L5_Lat_Bending	L4_L5_axial_rotation	L3_L4_Flex_Ext	L3_L4_Lat_Bending	L3_L4_axial_rotation	L2_L3_Flex_Ext	L2_L3_Lat_Bending	L2_L3_axial_rotation	L1_L2_Flex_Ext	L1_L2_Lat_Bending	L1_L2_axial_rotation	L1_T12_Flex_Ext	L1_T12_Lat_Bending	L1_T12_axial_rotation	Abs_r3	Abs_r2	Abs_r1	Abs_t1	Abs_t2	neck_flexion	neck_bending	neck_rotation	arm_flex_r	arm_add_r	arm_rot_r	elbow_flex_r	pro_sup_r	wrist_flex_r	wrist_dev_r	arm_flex_l	arm_add_l	arm_rot_l	elbow_flex_l	pro_sup_l	wrist_flex_l	wrist_dev_l
      0.03333333	     33.09933946	     12.94364632	    110.11169817	     -0.03617096	      0.96094195	      0.62205551	      5.34792313	     15.97424616	    -10.66014146	      8.00944469	      0.13979118	    -16.44093142	     19.52213216	      0.00000000	      1.06095117	    -35.25718654	     -6.41470300	     10.86324223	      0.18959934	     28.10923123	    -19.16945827	      0.00000000	     -1.33330449	      3.43719370	      1.40303379	     -2.47607977	      4.57146762	      1.49072340	     -2.19048595	      8.35719277	      1.49072340	     -1.52383370	      8.35719277	      1.22765457	     -1.23810655	      7.00912540	      1.13996496	     -0.76185019	      5.32421304	      1.05227534	     -9.52366064	     38.88222259	      7.80325304	      0.00000000	      0.00000000	     18.85061287	     23.50704685	    -44.93345449	      6.72862633	    -56.99976435	     53.64871235	     41.09043778	     89.99559364	      0.00000000	      0.00000000	     -0.26923115	    -95.01497873	     73.01267681	     73.32201568	     89.99559364	      0.00000000	      0.00000000
      0.06666667	     32.77053150	     12.86015267	    110.28644752	     -0.03407435	      0.96114651	      0.62119294	      5.32029140	     15.79087537	    -10.57502602	      8.00050600	      0.13963517	    -16.17051720	     19.54091575	      0.00000000	      1.13404167	    -35.07359602	     -6.45793412	     10.90723312	      0.19036713	     27.84284168	    -19.17102964	      0.00000000	     -1.34467221	      3.41180924	      1.38415672	     -2.49719077	      4.53770629	      1.47066651	     -2.20916198	      8.29547299	      1.47066651	     -1.53682587	      8.29547299	      1.21113713	     -1.24866262	      6.95736141	      1.12462733	     -0.76834570	      5.28489252	      1.03811754	     -9.60485915	     38.59506853	      7.69826441	      0.00000000	      0.00000000	     18.71674648	     23.22699719	    -44.93231456	      6.76963819	    -56.79683434	     53.60691658	     41.27128682	     89.99559364	      0.00000000	      0.00000000	     -0.26812027	    -94.97382372	     72.97426211	     73.32402320	     89.99559364	      0.00000000	      0.00000000
      0.10000000	     32.08051903	     12.68859360	    110.62408331	     -0.02996326	      0.96155313	      0.61944189	      5.26536293	     15.38585353	    -10.34705785	      8.04488903	      0.14040980	    -15.44517579	     19.52720589	      0.00000000	      1.22616222	    -34.65900588	     -6.50581707	     10.94933515	      0.19110195	     27.30141443	    -19.15502471	      0.00000000	     -1.36626749	      3.35536733	      1.34614022	     -2.53729535	      4.46263855	      1.43027398	     -2.24464085	      8.15824013	      1.43027398	     -1.56150711	      8.15824013	      1.17787269	     -1.26871599	      6.84226507	      1.09373893	     -0.78068524	      5.19746400	      1.00960516	     -9.75911203	     37.95658635	      7.48682805	      0.00000000	      0.00000000	     18.30845240	     22.79287640	    -44.92924757	      6.82056333	    -56.33498593	     53.44417625	     41.59321020	     89.99559364	      0.00000000	      0.00000000	     -0.26308340	    -94.90363298	     72.86723042	     73.32696663	     89.99559364	      0.00000000	      0.00000000
      0.13333333	     31.03555033	     12.46651603	    110.90561451	     -0.02406096	      0.96231063	      0.61662256	      5.08127722	     14.77585839	     -9.75996022	      8.11348212	      0.14160698	    -14.33118547	     19.50029077	      0.00000000	      0.96945355	    -33.99455696	     -6.96288596	     10.72765941	      0.18723298	     26.47160681	    -19.11277632	      0.00000000	     -1.40953555	      3.26915685	      1.33416692	     -2.61764847	      4.34797861	      1.41755235	     -2.31572595	      7.94862797	      1.41755235	     -1.61095818	      7.94862797	      1.16739605	     -1.30889471	      6.66646465	      1.08401062	     -0.80540861	      5.06392396	      1.00062519	    -10.06817147	     36.98135613	      7.42023616	      0.00000000	      0.00000000	     17.75338544	     22.10970041	    -44.92502976	      6.45909133	    -55.57853755	     52.23817027	     42.03557643	     89.99559364	      0.00000000	      0.00000000	     -0.21548901	    -94.81174861	     72.02006837	     73.35242985	     89.99559364	      0.00000000	      0.00000000
